<svg xmlns="http://www.w3.org/2000/svg"
  xmlns:xlink="http://www.w3.org/1999/xlink"
  width="548" height="439" viewBox="0 0 548 439" version="1.1">
  <title>Diamond Model</title>
  <g stroke="none" stroke-width="1" fill="none" fill-rule="evenodd">
    <a xlink:href="https://jemcmillan.github.io/dicecards/04-intro.html">
     <rect stroke="#000000" fill="#FFD28A" x="0.5" y="0.5" width="547" height="438"/>
    <g transform="translate(299.000000, 35.000000)">
      <path d="M0.5 196.84L171.5 360.06 0.5 196.84ZM0.5 167.06L171.5 0.06 0.5 167.06Z" stroke="#000000" stroke-width="5" stroke-linecap="square" transform="translate(86.003570, 180.057944) scale(-1, 1) translate(-86.003570, -180.057944) "/>
      <polygon fill="#000000" transform="translate(174.491791, 171.491791) scale(-1, 1) rotate(-135.000000) translate(-174.491791, -171.491791) " points="174.49 159.13 186.86 183.86 162.12 183.86"/>
      <polygon fill="#000000" transform="translate(176.491791, 191.491791) scale(-1, 1) rotate(-45.000000) translate(-176.491791, -191.491791) " points="176.49 179.13 188.86 203.86 164.12 203.86"/>
    </g>
    <g transform="translate(164.500000, 216.500000) scale(-1, 1) translate(-164.500000, -216.500000) translate(65.000000, 25.000000)">
      <path d="M21.27 193.5L198.27 362.5" stroke="#000000" stroke-width="5" stroke-linecap="square" transform="translate(109.386901, 278.500000) scale(-1, 1) translate(-109.386901, -278.500000) "/>
      <path d="M15.5 14.5L197.5 193.5" stroke="#000000" stroke-width="5" stroke-linecap="square"/>
      <polygon fill="#000000" transform="translate(18.272041, 17.517127) rotate(-45.000000) translate(-18.272041, -17.517127) " points="18.27 5.14 30.67 29.89 5.87 29.89"/>
      <polygon fill="#000000" transform="translate(18.272041, 364.517127) scale(-1, 1) rotate(-225.000000) translate(-18.272041, -364.517127) " points="18.27 352.14 30.67 376.89 5.87 376.89"/>
    </g>
    <path d="M223.5 15.83L223.5 423.83" stroke="#979797" stroke-linecap="square"/>
    <path d="M326.5 15.83L326.5 423.83" stroke="#979797" stroke-linecap="square"/>
    <text font-family="Helvetica" font-size="20" font-weight="normal" fill="#010101">
      <tspan x="231.65" y="212">Emergent</tspan>
      <tspan x="237.2" y="236">Thinking</tspan>
    </text>
    <text font-family="Helvetica" font-size="20" font-weight="normal" fill="#010101">
      <tspan x="112.2" y="212">Divergent</tspan>
      <tspan x="117.2" y="236">Thinking</tspan>
    </text>
    <text font-family="Helvetica" font-size="20" font-weight="normal" fill="#010101">
      <tspan x="341.3" y="212">Convergent</tspan>
      <tspan x="355.2" y="236">Thinking</tspan>
    </text>
  </a>
  </g>
</svg>
