<svg xmlns="http://www.w3.org/2000/svg"
  xmlns:xlink="http://www.w3.org/1999/xlink"
  width="401" height="399" viewBox="0 0 401 399" version="1.1">
  <a xlink:href="https://jemcmillan.github.io/dicecards/06-define.html">
  <g stroke="none" stroke-width="1" fill="none" fill-rule="evenodd">
    <rect stroke="#000000" fill="#003366" x="0.5" y="0.5" width="400" height="398"/>
    <g transform="translate(49.000000, 3.000000)">
      <circle fill="#ffffff" cx="20" cy="196" r="20"/>
      <g transform="translate(77.000000, 0.000000)">
        <path d="M3.3 196.3L0 193 3.3 196.3 2 197.6 3.3 196.3ZM3.3 196.3L179 21 3.3 196.3 177.7 368.9 3.3 196.3Z" stroke="#ffffff" stroke-width="10" stroke-linecap="square"/>
        <polygon fill="#ffffff" transform="translate(179.213203, 21.213203) rotate(-315.000000) translate(-179.213203, -21.213203) " points="179.2 6.2 194.2 36.2 164.2 36.2"/>
        <polygon fill="#ffffff" transform="translate(179.213203, 371.213203) rotate(-225.000000) translate(-179.213203, -371.213203) " points="179.2 356.2 194.2 386.2 164.2 386.2"/>
      </g>
    </g>
    <text font-family="Helvetica" font-size="24" font-weight="normal" fill="#ffffff">
      <tspan x="25.8" y="253">General</tspan>
      <tspan x="23.8" y="282">Problem</tspan>
    </text>
    <text font-family="Helvetica" font-size="24" font-weight="normal" fill="#ffffff">
      <tspan x="249" y="167">Research</tspan>
    </text>
    <text font-family="Helvetica" font-size="24" font-weight="normal" fill="#ffffff">
      <tspan x="249" y="247">Empathy</tspan>
    </text>
  </g>
    </a>
</svg>
