<svg xmlns="http://www.w3.org/2000/svg"
  xmlns:xlink="http://www.w3.org/1999/xlink"
  version="1.1" x="0" y="0" viewBox="0 0 511.6 511.6" xml:space="preserve">
  <a xlink:href="https://jemcmillan.github.io/dicecards/04-intro.html">
<style>
.s0{ fill:#D7E9FF; }
.s1{ fill:#FFF; }
.s2{ fill:#94C1FF; }
.s3{ fill:#5C9EFF; }
.s4{ fill:#116FFF; }
</style>
<path d="M475.7 267.8c0 121.4-98.4 219.8-219.8 219.8S36 389.2 36 267.8c0-121.4 98.4-219.8 219.8-219.8C377.3 48 475.7 146.5 475.7 267.8z" fill="#D7E9FF"/>
  <path d="M427.7 267.8c0 94.8-76.9 171.9-171.9 171.9 -95 0-171.9-77-171.9-171.9 0-94.8 76.9-171.9 171.9-171.9C350.8 95.9 427.7 173 427.7 267.8z" fill="#FFF"/>
  <polygon points="323.8 463.7 307.8 479.7 203.9 479.7 187.9 463.7 187.9 407.7 323.8 407.7 " fill="#94C1FF"/>
  <polygon points="203.9 407.7 187.9 407.7 187.9 463.7 203.9 479.7 219.9 479.7 203.9 463.7 " fill="#D7E9FF"/>
  <polygon points="307.8 407.7 323.8 407.7 323.8 463.7 307.8 479.7 291.8 479.7 307.8 463.7 " fill="#5C9EFF"/>
  <path d="M387.7 267.8c0-72.9-59.1-131.9-131.9-131.9s-131.9 59.1-131.9 131.9c0 48 25.7 89.8 64 112.9v27h135.9V380.7C362.1 357.6 387.7 315.8 387.7 267.8z" fill="#D7E9FF"/>
  <path d="M255.8 135.9c2.7 0 5.3 0.2 8 0.4 -69.1 4.2-123.9 61.3-123.9 131.5 0 71.2 48 112.9 48 112.9 -38.3-23.1-64-65-64-112.9C123.9 194.9 183 135.9 255.8 135.9zM255.8 135.9c-2.7 0-5.3 0.2-8 0.4 69.1 4.2 123.9 61.3 123.9 131.5 0 71.2-48 112.9-48 112.9 38.3-23.1 64-65 64-112.9C387.7 194.9 328.7 135.9 255.8 135.9z" fill="#FFF"/>
  <path d="M219.9 479.7c0 0 8 16 36 16 28 0 36-16 36-16H219.9z" fill="#94C1FF"/>
  <path d="M235.8 479.7H219.9c0 0 8 16 36 16 2.9 0 5.5-0.2 8-0.5C242.3 492.5 235.8 479.7 235.8 479.7z" fill="#D7E9FF"/>
  <path d="M275.8 479.7h16c0 0-8 16-36 16 -2.9 0-5.5-0.2-8-0.5C269.3 492.5 275.8 479.7 275.8 479.7z" fill="#5C9EFF"/>
  <rect x="187.9" y="399.7" width="135.9" height="8" fill="#94C1FF"/>
  <polygon points="339.8 263.8 171.9 263.8 195.9 223.8 317.6 223.8 " fill="#94C1FF"/>
  <polygon points="293.2 263.8 218.5 263.8 255.8 231.8 " fill="#94C1FF"/>
  <polygon points="227.8 263.8 171.9 263.8 193.1 228.5 " fill="#5C9EFF"/>
  <polygon points="193.1 228.5 171.9 263.8 187.9 263.8 203 238.6 " fill="#94C1FF"/>
  <polygon points="283.8 263.8 339.8 263.8 318.6 228.5 " fill="#5C9EFF"/>
  <polygon points="259.8 335.8 255.8 351.7 251.8 335.8 216 263.8 295.7 263.8 " fill="#94C1FF"/>
  <polygon points="255.8 344.3 255.8 351.7 171.9 263.8 216 263.8 " fill="#5C9EFF"/>
  <polygon points="187.9 263.8 171.9 263.8 255.8 351.7 255.8 344.3 246.3 325 " fill="#94C1FF"/>
  <polygon points="255.8 344.3 255.8 351.7 339.8 263.8 295.7 263.8 " fill="#5C9EFF"/>
  <polygon points="323.8 263.8 339.8 263.8 255.8 351.7 255.8 344.3 265.3 325 " fill="#94C1FF"/>
  <polygon points="318.6 228.5 339.8 263.8 323.8 263.8 308.6 238.6 " fill="#94C1FF"/>
  <path d="M307.8 483.7H203.9c-1.1 0-2.1-0.4-2.8-1.2l-16-16c-0.7-0.7-1.2-1.8-1.2-2.8v-56c0-2.2 1.8-4 4-4h135.9c2.2 0 4 1.8 4 4v56c0 1.1-0.4 2.1-1.2 2.8l-16 16C309.9 483.2 308.8 483.7 307.8 483.7zM205.5 475.7h100.6l13.6-13.6v-50.3H191.9v50.3L205.5 475.7zM179.9 435.7c-2.1 0-3.9-1.7-4-3.8 -0.1-2.2 1.6-4.1 3.8-4.2l151.9-8c2.2-0.2 4.1 1.6 4.2 3.8 0.1 2.2-1.6 4.1-3.8 4.2l-151.9 8C180 435.7 179.9 435.7 179.9 435.7zM179.9 459.7c-2.1 0-3.9-1.7-4-3.8 -0.1-2.2 1.6-4.1 3.8-4.2l151.9-8c2.2-0.2 4.1 1.6 4.2 3.8 0.1 2.2-1.6 4.1-3.8 4.2l-151.9 8C180 459.7 179.9 459.7 179.9 459.7zM323.8 411.7H187.9c-2.2 0-4-1.8-4-4v-24.8c-40.1-25.1-64-67.9-64-115.1 0-74.9 61-135.9 135.9-135.9 74.9 0 135.9 61 135.9 135.9 0 47.2-23.9 90.1-64 115.1v24.8C327.8 409.9 326 411.7 323.8 411.7zM191.9 403.7h127.9v-23c0-1.4 0.7-2.7 1.9-3.4 38.8-23.4 62-64.3 62-109.5 0-70.5-57.4-127.9-127.9-127.9 -70.5 0-127.9 57.4-127.9 127.9 0 45.1 23.2 86 62 109.5 1.2 0.7 1.9 2 1.9 3.4v23H191.9zM255.8 499.6c-30.1 0-39.2-17.5-39.5-18.2 -1-2-0.2-4.4 1.8-5.4 2-1 4.4-0.2 5.3 1.7 0.3 0.6 7.6 13.8 32.4 13.8 24.9 0 32.1-13.3 32.4-13.8 1-1.9 3.4-2.7 5.4-1.7 2 1 2.7 3.4 1.8 5.3C295 482.2 285.9 499.6 255.8 499.6zM84 271.8H4c-2.2 0-4-1.8-4-4 0-2.2 1.8-4 4-4h80c2.2 0 4 1.8 4 4C88 270 86.2 271.8 84 271.8zM427.7 271.8c-2.2 0-4-1.8-4-4 0-2.2 1.8-4 4-4l79.9 0c2.2 0 4 1.8 4 4 0 2.2-1.8 4-4 4H427.7zM37.7 397.7c-1.4 0-2.7-0.7-3.5-2 -1.1-1.9-0.4-4.4 1.5-5.5l69.2-40c1.9-1.1 4.4-0.5 5.5 1.5 1.1 1.9 0.4 4.4-1.5 5.4l-69.2 40C39.1 397.5 38.4 397.7 37.7 397.7zM404.7 185.9c-1.4 0-2.7-0.7-3.5-2 -1.1-1.9-0.4-4.4 1.5-5.5l69.2-40c1.9-1.1 4.4-0.5 5.5 1.5 1.1 1.9 0.4 4.4-1.5 5.5l-69.2 40C406.1 185.7 405.4 185.9 404.7 185.9zM341.8 123c-0.7 0-1.4-0.2-2-0.5 -1.9-1.1-2.6-3.5-1.5-5.5l40-69.2c1.1-1.9 3.5-2.6 5.5-1.5 1.9 1.1 2.6 3.5 1.5 5.5l-40 69.2C344.5 122.2 343.1 123 341.8 123zM255.8 99.9c-2.2 0-4-1.8-4-4l0-79.9c0-2.2 1.8-4 4-4 2.2 0 4 1.8 4 4l0 79.9C259.8 98.1 258 99.9 255.8 99.9zM169.9 122.9c-1.4 0-2.7-0.7-3.5-2l-40-69.2c-1.1-1.9-0.4-4.4 1.5-5.5 1.9-1.1 4.3-0.5 5.5 1.5l40 69.2c1.1 1.9 0.4 4.4-1.5 5.5C171.3 122.8 170.6 122.9 169.9 122.9zM473.9 397.7c-0.7 0-1.4-0.2-2-0.5l-69.2-40c-1.9-1.1-2.6-3.5-1.5-5.4 1.1-1.9 3.6-2.6 5.5-1.5l69.2 40c1.9 1.1 2.6 3.5 1.5 5.5C476.6 397 475.3 397.7 473.9 397.7zM107 185.8c-0.7 0-1.4-0.2-2-0.5l-69.2-40c-1.9-1.1-2.6-3.5-1.5-5.5 1.1-1.9 3.5-2.6 5.5-1.5l69.2 40c1.9 1.1 2.6 3.5 1.5 5.5C109.7 185.1 108.4 185.8 107 185.8zM255.8 355.7c-1.1 0-2.1-0.5-2.9-1.2l-83.9-87.9c-1.2-1.3-1.5-3.3-0.5-4.8l24-40c0.7-1.2 2-1.9 3.4-1.9h119.9c1.4 0 2.7 0.7 3.4 1.9l24 40c0.9 1.5 0.7 3.5-0.5 4.8l-83.9 87.9C258 355.3 256.9 355.7 255.8 355.7zM176.9 263.3l78.9 82.7 78.9-82.7 -21.3-35.4H198.1L176.9 263.3zM323.8 267.8H187.9c-2.2 0-4-1.8-4-4 0-2.2 1.8-4 4-4h135.9c2.2 0 4 1.8 4 4C327.8 266 326 267.8 323.8 267.8zM251.8 339.8c-1.5 0-2.9-0.8-3.6-2.2l-32-64c-1-2-0.2-4.4 1.8-5.4 2-1 4.4-0.2 5.4 1.8l32 64c1 2 0.2 4.4-1.8 5.4C253 339.6 252.4 339.8 251.8 339.8zM259.8 339.8c-0.6 0-1.2-0.1-1.8-0.4 -2-1-2.8-3.4-1.8-5.4l32-64c1-2 3.4-2.8 5.4-1.8 2 1 2.8 3.4 1.8 5.4l-32 64C262.7 338.9 261.3 339.8 259.8 339.8zM283.8 259.8c-0.9 0-1.8-0.3-2.6-1l-25.4-21.8 -25.4 21.8c-1.7 1.4-4.2 1.2-5.6-0.4 -1.4-1.7-1.2-4.2 0.4-5.6l28-24c1.5-1.3 3.7-1.3 5.2 0l28 24c1.7 1.4 1.9 4 0.4 5.6C286 259.3 284.9 259.8 283.8 259.8zM219.8 259.8c-1 0-2-0.4-2.8-1.2l-24-24c-1.6-1.6-1.6-4.1 0-5.7 1.6-1.6 4.1-1.6 5.7 0l24 24c1.6 1.6 1.6 4.1 0 5.7C221.9 259.4 220.9 259.8 219.8 259.8zM291.8 259.8c-1 0-2-0.4-2.8-1.2 -1.6-1.6-1.6-4.1 0-5.7l24-24c1.6-1.6 4.1-1.6 5.7 0 1.6 1.6 1.6 4.1 0 5.7l-24 24C293.8 259.4 292.8 259.8 291.8 259.8zM421.8 227.3c-1.8 0-3.4-1.2-3.9-3 -0.6-2.1 0.7-4.3 2.8-4.9l39.1-10.5c2.1-0.5 4.3 0.7 4.9 2.8 0.6 2.1-0.7 4.3-2.8 4.9l-39 10.5C422.5 227.3 422.2 227.3 421.8 227.3zM50.7 326.7c-1.8 0-3.4-1.2-3.9-3 -0.6-2.1 0.7-4.3 2.8-4.9l39-10.5c2.1-0.5 4.3 0.7 4.9 2.8 0.6 2.1-0.7 4.3-2.8 4.9l-39 10.5C51.4 326.7 51.1 326.7 50.7 326.7zM377.3 150.3c-1 0-2-0.4-2.8-1.2 -1.6-1.6-1.6-4.1 0-5.7l28.6-28.6c1.6-1.6 4.1-1.6 5.7 0s1.6 4.1 0 5.7l-28.6 28.6C379.4 149.9 378.4 150.3 377.3 150.3zM105.7 421.9c-1 0-2-0.4-2.8-1.2 -1.6-1.6-1.6-4.1 0-5.7l28.6-28.6c1.6-1.6 4.1-1.6 5.7 0 1.6 1.6 1.6 4.1 0 5.7l-28.6 28.6C107.8 421.5 106.7 421.9 105.7 421.9zM300.3 105.8c-0.3 0-0.7 0-1-0.1 -2.1-0.6-3.4-2.8-2.8-4.9l10.4-39c0.6-2.1 2.8-3.3 4.9-2.8 2.1 0.6 3.4 2.8 2.8 4.9l-10.4 39.1C303.7 104.6 302.1 105.8 300.3 105.8zM211.3 105.8c-1.8 0-3.4-1.2-3.9-3l-10.5-39c-0.6-2.1 0.7-4.3 2.8-4.9 2.1-0.6 4.3 0.7 4.9 2.8l10.5 39c0.6 2.1-0.7 4.3-2.8 4.9C212 105.8 211.7 105.8 211.3 105.8zM134.3 150.3c-1 0-2-0.4-2.8-1.2l-28.6-28.6c-1.6-1.6-1.6-4.1 0-5.7 1.6-1.6 4.1-1.6 5.7 0l28.6 28.6c1.6 1.6 1.6 4.1 0 5.7C136.3 149.9 135.3 150.3 134.3 150.3zM405.9 421.9c-1 0-2-0.4-2.8-1.2l-28.6-28.6c-1.6-1.6-1.6-4.1 0-5.7 1.6-1.6 4.1-1.6 5.7 0l28.6 28.6c1.6 1.6 1.6 4.1 0 5.7C408 421.5 407 421.9 405.9 421.9zM89.8 227.3c-0.3 0-0.7 0-1-0.1l-39.1-10.4c-2.1-0.6-3.4-2.8-2.8-4.9s2.8-3.3 4.9-2.8l39.1 10.4c2.1 0.6 3.4 2.8 2.8 4.9C93.2 226.2 91.6 227.3 89.8 227.3zM460.9 326.8c-0.3 0-0.7 0-1-0.1l-39-10.4c-2.1-0.6-3.4-2.8-2.8-4.9 0.6-2.1 2.8-3.4 4.9-2.8l39 10.4c2.1 0.6 3.4 2.8 2.8 4.9C464.3 325.6 462.6 326.8 460.9 326.8z" fill="#116FFF"/>
</a></svg>
