<svg xmlns="http://www.w3.org/2000/svg" width="416" height="488" viewBox="0 0 416 488" version="1.1">
  <title>emergent thinking - bulb graphic</title>
  <g stroke="none" stroke-width="1" fill="none" fill-rule="evenodd">
    <path d="M387.6 168C382.9 146.8 374.6 127 363.3 109.3L383.4 89.2 326.8 32.6 306.7 52.7C289 41.4 269.2 33.1 248 28.4L248 0 168 0 168 28.4C146.8 33.1 127 41.4 109.3 52.7L89.2 32.6 32.6 89.2 52.7 109.3C41.4 127 33.1 146.8 28.4 168L0 168 0 248 28.4 248C33.1 269.2 41.4 289 52.7 306.7L32.6 326.8 89.2 383.4 109.3 363.3C113.5 365.9 117.9 368.4 122.3 370.8 125.7 364.4 132.3 360 140 360L136 360C136 339 127.1 319.2 112.2 304.3 83.5 275.8 67.4 234.7 73.2 189.8 81.1 128.6 131.1 79.6 192.5 72.9 274.5 63.8 344 127.8 344 208 344 246 328.3 280.3 303.2 305 288.4 319.5 280 339.3 280 360L280 360 276 360C283.7 360 290.3 364.4 293.7 370.8 298.1 368.4 302.5 365.9 306.7 363.3L326.8 383.4 383.4 326.8 363.3 306.7C374.6 289 382.9 269.2 387.6 248L416 248 416 168 387.6 168Z" fill="#F9BA48" fill-rule="nonzero"/>
    <g transform="translate(64.000000, 63.000000)" fill="#333333" fill-rule="nonzero">
      <path d="M288 145C288 104.1 270.5 65 240 37.7 209.1 10 169.2-2.7 127.6 1.9 62.8 9.1 9.6 61.2 1.3 125.8 -4.6 171 10.4 215.2 42.6 247 55.1 259.5 62.5 275.3 63.7 291.9 54.5 296.5 48 306 48 317 48 327 53.4 335.8 61.3 340.7 58 345.3 56 350.9 56 357 56 367 61.4 375.8 69.3 380.7 66 385.3 64 390.9 64 397 64 412.4 76.6 425 92 425L196 425C211.4 425 224 412.4 224 397 224 390.9 222 385.3 218.7 380.7 226.6 375.8 232 367 232 357 232 350.9 230 345.3 226.7 340.7 234.6 335.8 240 327 240 317 240 306 233.5 296.5 224.3 292 225.5 275.3 232.8 259.4 244.8 247.7 272.6 220.4 288 183.9 288 145ZM224 317C224 323.6 218.6 329 212 329L204 329 84 329 76 329C69.4 329 64 323.6 64 317 64 310.4 69.4 305 76 305L212 305C218.6 305 224 310.4 224 317ZM204 369L196 369 92 369 84 369C77.4 369 72 363.6 72 357 72 350.4 77.4 345 84 345L204 345C210.6 345 216 350.4 216 357 216 363.6 210.6 369 204 369ZM196 409L92 409C85.4 409 80 403.6 80 397 80 390.4 85.4 385 92 385L196 385C202.6 385 208 390.4 208 397 208 403.6 202.6 409 196 409ZM208.4 289L79.6 289C77.7 269.1 68.7 250.4 53.8 235.7 25.3 207.4 11.9 168.1 17.1 127.8 24.6 70.5 71.8 24.2 129.4 17.8 166.4 13.7 201.9 25 229.3 49.6 256.5 73.9 272 108.6 272 145 272 179.6 258.4 212 233.6 236.3 219.2 250.3 210.3 269.2 208.4 289Z"/>
    </g>
    <text font-family="LucidaGrande, Lucida Grande" font-size="288" font-weight="normal" letter-spacing="1.4" fill="#333333">
      <tspan x="120.3" y="365">E</tspan>
    </text>
  </g>
</svg>
