<!--Icon made by Freepik from www.flaticon.com -->
<svg xmlns="http://www.w3.org/2000/svg"
  xmlns:xlink="http://www.w3.org/1999/xlink"
  version="1.1"
  <a xlink:href="https://jemcmillan.github.io/dicecards/03-intro.html">
  x="0" y="0" width="100%" height="100%" viewBox="0 0 512 512" xml:space="preserve">
  <path d="M362.5 232.7c9.8-5.7 20.9-8.8 32.2-8.7 35.3 0 64 28.7 64 64v32c0 27.1-17.1 51.3-42.7 60.3v14.4c17.3 8.2 35.1 15.4 53.3 21.3 32 10.7 32 32 32 32v64H288v-64c0 0 0-21.3 32-32 18.2-6 36-13.1 53.3-21.3v-14.4c-25.6-9-42.7-33.2-42.7-60.3v-32C330.7 265.2 342.8 244.2 362.5 232.7L362.5 232.7zM224 501.3V512H10.7v-64c0 0 0-21.3 32-32 18.2-6 36-13.1 53.3-21.3v-14.4C70.4 371.3 53.3 347.1 53.3 320v-32c0-35.3 28.7-64 64-64 35.3 0.1 63.9 28.7 64 64v32c0 27.1-17.1 51.3-42.7 60.3v14.4C156 402.9 173.8 410 192 416c32 10.7 32 32 32 32V501.3z" fill="#FFF"/>
  <path d="M373.3 380.3v14.4C356 402.9 338.2 410 320 416c-32 10.7-32 32-32 32v53.3h-64V448c0 0 0-21.3-32-32 -18.2-6-36-13.1-53.3-21.3v-14.4c25.6-9 42.7-33.2 42.7-60.3v-32c0-22.8-12.1-43.8-31.8-55.3 0.9-5.4 5.5-21.3 31.8-30.1 18.2-6 36-13.1 53.3-21.3v-14.4c-25.6-9-42.7-33.2-42.7-60.3v-32c0-35.3 28.7-64 64-64s64 28.7 64 64v32c0 27.1-17.1 51.3-42.7 60.3v14.4c17.3 8.2 35.1 15.4 53.3 21.3 26.2 8.7 30.9 24.6 31.8 30.1 -19.7 11.5-31.8 32.5-31.8 55.3v32C330.7 347.1 347.8 371.3 373.3 380.3z" fill="#87D2F3"/>
  <path d="M472.7 405.9c-15.6-5.2-31-11.2-46-18v-0.5c26-12.3 42.6-38.6 42.7-67.4v-32c0.2-41.1-33-74.5-74-74.7 -9.2 0-18.3 1.6-26.9 4.9 -7.8-12.7-20.1-21.8-34.4-25.7 -15.6-5.2-31-11.2-46-18v-0.5c26-12.3 42.6-38.6 42.7-67.4v-32C330.7 33.4 297.2 0 256 0s-74.7 33.4-74.7 74.7v32c0 28.8 16.6 55 42.7 67.4v0.5c-15 6.8-30.4 12.8-46 18 -14.3 3.8-26.7 13-34.4 25.7 -38.3-14.7-81.3 4.5-96 42.9 -3.3 8.6-4.9 17.7-4.9 26.9v32c0 28.8 16.6 55 42.7 67.4v0.5c-15 6.8-30.4 12.8-46 18C0.4 418.8 0 446.8 0 448v64h21.3v-63.7c0-0.6 1.1-14.3 24.7-22.2 18.7-6.1 37-13.4 54.7-21.9 3.6-1.8 5.9-5.5 5.9-9.6v-14.4c0-4.5-2.9-8.6-7.1-10.1C78.3 362.7 64 342.6 64 320v-32c0-29.4 23.9-53.3 53.3-53.3 9.4 0 18.7 2.5 26.8 7.3 16.4 9.6 26.4 27.1 26.5 46v32c0 22.6-14.3 42.7-35.5 50.2 -4.3 1.5-7.1 5.5-7.1 10.1v14.4c0 4.1 2.3 7.8 5.9 9.6 17.8 8.5 36 15.8 54.7 21.9 23.6 7.8 24.7 21.5 24.7 21.8v64h21.3v-64c0-1.2-0.4-29.2-39.3-42.1 -15.6-5.2-31-11.2-46-18v-0.5C175.4 375 192 348.8 192 320v-32c-0.1-23.4-11.1-45.4-29.7-59.5 5.2-7.9 13.2-13.5 22.4-15.7 18.7-6.1 37-13.4 54.7-21.9 3.6-1.8 5.9-5.5 5.9-9.6v-14.4c0-4.5-2.9-8.6-7.1-10.1 -21.3-7.5-35.5-27.6-35.5-50.2v-32c0-29.5 23.9-53.3 53.3-53.3 29.5 0 53.3 23.9 53.3 53.3v32c0 22.6-14.3 42.7-35.5 50.2 -4.3 1.5-7.1 5.5-7.1 10.1v14.4c0 4 2.3 7.7 5.9 9.5 17.8 8.5 36 15.8 54.7 21.9 9.2 2.2 17.2 7.9 22.4 15.8C331.1 242.7 320.1 264.6 320 288v32c0 28.8 16.6 55 42.7 67.4v0.5c-15 6.8-30.4 12.8-46 18 -38.8 12.9-39.3 40.9-39.3 42.1v64h21.3v-63.7c0-0.6 1.1-14.3 24.7-22.2 18.7-6.1 37-13.4 54.7-21.9 3.6-1.8 5.9-5.5 5.9-9.6v-14.4c0-4.5-2.9-8.6-7.1-10.1 -21.3-7.5-35.5-27.6-35.5-50.2v-32c0.1-19 10.2-36.5 26.5-46.1 8.1-4.8 17.4-7.3 26.8-7.3C424.1 234.7 448 258.6 448 288v32c0 22.6-14.3 42.7-35.5 50.2 -4.3 1.5-7.1 5.5-7.1 10.1v14.4c0 4.1 2.3 7.8 5.9 9.6 17.8 8.5 36 15.8 54.7 21.9 23.6 7.8 24.7 21.5 24.7 21.8v64H512v-64C512 446.8 511.6 418.8 472.7 405.9L472.7 405.9zM245.3 288h21.3v21.3h-21.3V288zM245.3 245.3h21.3v21.3h-21.3V245.3zM245.3 330.7h21.3V352h-21.3V330.7zM160 458.7h21.3V512H160V458.7zM53.3 458.7h21.3V512H53.3V458.7zM330.7 458.7H352V512h-21.3V458.7zM437.3 458.7h21.3V512h-21.3V458.7z" fill="#2170A6"/>
  </a></svg>
