<svg xmlns="http://www.w3.org/2000/svg"
  xmlns:xlink="http://www.w3.org/1999/xlink"
  width="438" height="496" viewBox="0 0 438 496" version="1.1">
  <g stroke="none" stroke-width="1" fill="none" fill-rule="evenodd">
    <a xlink:href="https://jemcmillan.github.io/dicecards/01-intro.html">
    <g transform="translate(219.000000, 248.000000) scale(-1, 1) translate(-219.000000, -248.000000) " fill-rule="nonzero">
      <path d="M117 0C77.3 0 45 32.3 45 72 45 96 57.2 118.5 77 131.8L77 160 157 160 157 131.8C176.9 118.5 189 96 189 72 189 32.3 156.7 0 117 0ZM117 88C108.2 88 101 80.8 101 72 101 63.2 108.2 56 117 56 125.9 56 133 63.2 133 72 133 80.8 125.9 88 117 88Z" fill="#F9BA48"/>
      <g fill="#333333">
        <path d="M437 0L390.5 34.9 343.8 144 306.1 144 291.4 112 301 112C318.7 112 333 97.6 333 80L333 48 349 48 349 0 301 0 301 48 317 48 317 80C317 88.8 309.9 96 301 96L284 96 263.5 51.7 288 39.4 207.8 5.1 184.3 87.3 209.2 74.9 218.9 96.2C202.3 97.3 189 111.1 189 128L189 144 125 144 125 94.5C134.3 91.2 141 82.4 141 72 141 58.8 130.3 48 117 48 103.8 48 93 58.8 93 72 93 82.4 99.7 91.2 109 94.5L109 144 57.7 144 56.4 150.5C52.5 170.7 52.2 191.3 55.3 212L0.8 309.3 61.2 323 61.2 423.8 141.2 423.8 141.2 495.8 333.2 495.8 333.2 384.4C388.3 344.8 421.1 281.1 421 213.1L421 183.9C421 172.9 420 161.7 417.9 150.6L416.7 144 401 144 437 57.6 437 0ZM317 16L333 16 333 32 317 32 317 16ZM117 64C121.4 64 125 67.6 125 72 125 76.4 121.4 80 117 80 112.6 80 109 76.4 109 72 109 67.6 112.6 64 117 64ZM421 43L412.2 38.6 421 32 421 43ZM288.5 144L258.2 144 243.6 112 273.8 112 288.5 144ZM209.7 56.7L218.2 26.9 250 40.5 242.5 44.3 266.4 96 236.4 96 216.9 53.1 209.7 56.7ZM205 128C205 119.2 212.2 112 221 112L226.1 112 240.6 144 205 144 205 128ZM405 183.9L405 213.1C405.1 277.2 373.5 337.2 320.6 373.6L317.1 376 317.1 479.8 157.1 479.8 157.1 407.8 77.1 407.8 77.1 310.3 25.2 298.4 72 214.9 71.6 212.2C68.6 194.6 68.4 177.1 71 160L403.3 160C404.4 168 405 176 405 183.9ZM361.2 144L401 51 418.8 59.8 383.7 144 361.2 144ZM133 224C155.1 224 173 206.1 173 184L157 184C157 197.2 146.3 208 133 208 119.8 208 109 197.2 109 184L93 184C93 206 111 224 133 224Z"/>
      </g>
    </g>
  </a>
  </g>
</svg>
